<svg viewBox="0 0 92 46" fill="none" xmlns="http://www.w3.org/2000/svg">
<path d="M25.3 46C24.3033 46 23.4792 45.6742 22.8275 45.0225C22.1758 44.3708 21.85 43.5467 21.85 42.55C21.85 41.5533 22.1758 40.7292 22.8275 40.0775C23.4792 39.4258 24.3033 39.1 25.3 39.1H52.555C50.945 37.49 49.565 35.535 48.415 33.235C47.265 30.935 46.5367 28.6733 46.23 26.45H34.5C33.5033 26.45 32.6792 26.1242 32.0275 25.4725C31.3758 24.8208 31.05 23.9967 31.05 23C31.05 22.0033 31.3758 21.1792 32.0275 20.5275C32.6792 19.8758 33.5033 19.55 34.5 19.55H46.23C46.5367 17.4033 47.2458 15.1992 48.3575 12.9375C49.4692 10.6758 50.8683 8.66333 52.555 6.9H8.05C7.05333 6.9 6.22917 6.57417 5.5775 5.9225C4.92583 5.27083 4.6 4.44667 4.6 3.45C4.6 2.45333 4.92583 1.62917 5.5775 0.9775C6.22917 0.325834 7.05333 0 8.05 0H69C75.3633 0 80.7875 2.2425 85.2725 6.7275C89.7575 11.2125 92 16.6367 92 23C92 29.3633 89.7575 34.7875 85.2725 39.2725C80.7875 43.7575 75.3633 46 69 46H25.3ZM69 39.1C73.4467 39.1 77.2417 37.5283 80.385 34.385C83.5283 31.2417 85.1 27.4467 85.1 23C85.1 18.5533 83.5283 14.7583 80.385 11.615C77.2417 8.47166 73.4467 6.9 69 6.9C64.5533 6.9 60.7583 8.47166 57.615 11.615C54.4717 14.7583 52.9 18.5533 52.9 23C52.9 27.4467 54.4717 31.2417 57.615 34.385C60.7583 37.5283 64.5533 39.1 69 39.1ZM3.45 26.45C2.45333 26.45 1.62917 26.1242 0.9775 25.4725C0.325834 24.8208 0 23.9967 0 23C0 22.0033 0.325834 21.1792 0.9775 20.5275C1.62917 19.8758 2.45333 19.55 3.45 19.55H24.15C25.1467 19.55 25.9708 19.8758 26.6225 20.5275C27.2742 21.1792 27.6 22.0033 27.6 23C27.6 23.9967 27.2742 24.8208 26.6225 25.4725C25.9708 26.1242 25.1467 26.45 24.15 26.45H3.45ZM8.05 46C7.05333 46 6.22917 45.6742 5.5775 45.0225C4.92583 44.3708 4.6 43.5467 4.6 42.55C4.6 41.5533 4.92583 40.7292 5.5775 40.0775C6.22917 39.4258 7.05333 39.1 8.05 39.1H14.95C15.9467 39.1 16.7708 39.4258 17.4225 40.0775C18.0742 40.7292 18.4 41.5533 18.4 42.55C18.4 43.5467 18.0742 44.3708 17.4225 45.0225C16.7708 45.6742 15.9467 46 14.95 46H8.05Z" fill="#FF95B5"/>
</svg>
