<svg width="22" height="16" viewBox="0 0 22 16" fill="none" xmlns="http://www.w3.org/2000/svg">
<path d="M12.8332 5.84591V4.74591C13.3373 4.53203 13.853 4.37161 14.38 4.26466C14.9071 4.15772 15.4609 4.10425 16.0415 4.10425C16.4387 4.10425 16.8283 4.1348 17.2103 4.19591C17.5922 4.25703 17.9665 4.33342 18.3332 4.42508V5.43341C17.9665 5.29591 17.596 5.19279 17.2217 5.12404C16.8474 5.05529 16.454 5.02092 16.0415 5.02092C15.4609 5.02092 14.9033 5.09348 14.3686 5.23862C13.8339 5.38376 13.3221 5.58619 12.8332 5.84591ZM12.8332 10.8876V9.76466C13.3373 9.55078 13.853 9.39418 14.38 9.29487C14.9071 9.19557 15.4609 9.14592 16.0415 9.14592C16.4387 9.14592 16.8283 9.17647 17.2103 9.23758C17.5922 9.29869 17.9665 9.37508 18.3332 9.46675V10.4751C17.9665 10.3376 17.596 10.2345 17.2217 10.1657C16.8474 10.097 16.454 10.0626 16.0415 10.0626C15.4609 10.0626 14.9033 10.1313 14.3686 10.2688C13.8339 10.4063 13.3221 10.6126 12.8332 10.8876ZM12.8332 8.36675V7.26675C13.3373 7.05286 13.853 6.89244 14.38 6.7855C14.9071 6.67855 15.4609 6.62508 16.0415 6.62508C16.4387 6.62508 16.8283 6.65564 17.2103 6.71675C17.5922 6.77786 17.9665 6.85425 18.3332 6.94592V7.95425C17.9665 7.81675 17.596 7.71362 17.2217 7.64487C16.8474 7.57612 16.454 7.54175 16.0415 7.54175C15.4609 7.54175 14.9033 7.61432 14.3686 7.75946C13.8339 7.9046 13.3221 8.10703 12.8332 8.36675ZM5.68317 12.1251C6.50817 12.1251 7.30643 12.2206 8.07796 12.4115C8.84949 12.6025 9.60956 12.889 10.3582 13.2709V3.4855C9.67067 3.02716 8.92588 2.67196 8.1238 2.41987C7.32171 2.16779 6.50817 2.04175 5.68317 2.04175C5.10261 2.04175 4.53352 2.11432 3.97588 2.25946C3.41824 2.4046 2.85678 2.58411 2.2915 2.798V12.7438C2.76511 12.5299 3.30366 12.3733 3.90713 12.274C4.5106 12.1747 5.10261 12.1251 5.68317 12.1251ZM11.7332 13.2709C12.4971 12.889 13.2457 12.6025 13.979 12.4115C14.7123 12.2206 15.4915 12.1251 16.3165 12.1251C16.8971 12.1251 17.4967 12.1709 18.1155 12.2626C18.7342 12.3542 19.2651 12.4765 19.7082 12.6292V2.798C19.1887 2.53828 18.6387 2.3473 18.0582 2.22508C17.4776 2.10286 16.8971 2.04175 16.3165 2.04175C15.4915 2.04175 14.6932 2.16779 13.9217 2.41987C13.1502 2.67196 12.4207 3.02716 11.7332 3.4855V13.2709ZM11.0457 15.3334C10.2665 14.7529 9.41859 14.306 8.50192 13.9928C7.58525 13.6796 6.64567 13.523 5.68317 13.523C5.11789 13.523 4.56789 13.5917 4.03317 13.7292C3.49845 13.8667 2.96373 14.0348 2.429 14.2334C2.07762 14.4015 1.73768 14.3786 1.40921 14.1647C1.08074 13.9508 0.916504 13.6452 0.916504 13.248V2.63758C0.916504 2.40841 0.969976 2.19835 1.07692 2.00737C1.18386 1.8164 1.34428 1.66744 1.55817 1.5605C2.19984 1.25494 2.86824 1.0296 3.56338 0.884457C4.25852 0.739318 4.96511 0.666748 5.68317 0.666748C6.64567 0.666748 7.58143 0.796609 8.49046 1.05633C9.39949 1.31605 10.2512 1.71328 11.0457 2.248C11.8248 1.71328 12.6613 1.31605 13.555 1.05633C14.4488 0.796609 15.3693 0.666748 16.3165 0.666748C17.0346 0.666748 17.7373 0.739318 18.4248 0.884457C19.1123 1.0296 19.7769 1.25494 20.4186 1.5605C20.6325 1.66744 20.7967 1.8164 20.9113 2.00737C21.0259 2.19835 21.0832 2.40841 21.0832 2.63758V13.248C21.0832 13.6758 20.9113 14.0004 20.5675 14.222C20.2238 14.4435 19.8839 14.4473 19.5478 14.2334C19.0283 14.0195 18.5012 13.8477 17.9665 13.7178C17.4318 13.5879 16.8818 13.523 16.3165 13.523C15.354 13.523 14.4297 13.6834 13.5436 14.0042C12.6575 14.3251 11.8248 14.7681 11.0457 15.3334Z" fill="#9CA6CE"/>
</svg>
