<svg width="19" height="19" viewBox="0 0 19 19" fill="none" xmlns="http://www.w3.org/2000/svg">
<path d="M5.95313 19.0001C5.49479 19.0001 5.10521 18.8397 4.78438 18.5189C4.46354 18.198 4.30313 17.8084 4.30313 17.3501C4.30313 16.8918 4.46354 16.5022 4.78438 16.1814C5.10521 15.8605 5.49479 15.7001 5.95313 15.7001C6.39618 15.7001 6.78195 15.8605 7.11042 16.1814C7.43889 16.5022 7.60313 16.8918 7.60313 17.3501C7.60313 17.8084 7.44271 18.198 7.12188 18.5189C6.80104 18.8397 6.41146 19.0001 5.95313 19.0001ZM15.1198 19.0001C14.6615 19.0001 14.2719 18.8397 13.951 18.5189C13.6302 18.198 13.4698 17.8084 13.4698 17.3501C13.4698 16.8918 13.6302 16.5022 13.951 16.1814C14.2719 15.8605 14.6615 15.7001 15.1198 15.7001C15.5628 15.7001 15.9486 15.8605 16.2771 16.1814C16.6056 16.5022 16.7698 16.8918 16.7698 17.3501C16.7698 17.8084 16.6094 18.198 16.2885 18.5189C15.9677 18.8397 15.5781 19.0001 15.1198 19.0001ZM4.76146 3.87511L7.28229 9.10011H13.8823L16.7469 3.87511H4.76146ZM4.07396 2.50011H17.5719C18.0608 2.50011 18.3701 2.64907 18.5 2.94699C18.6299 3.24491 18.5878 3.5772 18.374 3.94386L15.2802 9.51261C15.1274 9.77234 14.9135 9.99768 14.6385 10.1887C14.3635 10.3796 14.0656 10.4751 13.7448 10.4751H6.80104L5.51771 12.8584H16.7698V14.2334H5.72396C5.08229 14.2334 4.62014 14.0196 4.3375 13.5918C4.05486 13.164 4.05868 12.6828 4.34896 12.148L5.81563 9.44386L2.33229 2.0647H0.544792V0.689697H3.22604L4.07396 2.50011ZM7.28229 9.10011L4.76146 3.87511H16.7469L13.8823 9.10011H7.28229Z" fill="white"/>
</svg>
