<svg width="20" height="19" viewBox="0 0 20 19" fill="none" xmlns="http://www.w3.org/2000/svg">
<path d="M13.3684 13.5896L14.3997 12.5583L10.7559 8.89167V4.28542H9.38092V9.44167L13.3684 13.5896ZM9.99967 18.3333C8.7469 18.3333 7.56287 18.0927 6.44759 17.6115C5.33231 17.1302 4.35836 16.4733 3.52572 15.6406C2.69308 14.808 2.03613 13.834 1.55488 12.7188C1.07363 11.6035 0.833008 10.4194 0.833008 9.16667C0.833008 7.91389 1.07363 6.72986 1.55488 5.61458C2.03613 4.49931 2.69308 3.52535 3.52572 2.69271C4.35836 1.86007 5.33231 1.20312 6.44759 0.721875C7.56287 0.240625 8.7469 0 9.99967 0C11.2525 0 12.4365 0.240625 13.5518 0.721875C14.667 1.20312 15.641 1.86007 16.4736 2.69271C17.3063 3.52535 17.9632 4.49931 18.4445 5.61458C18.9257 6.72986 19.1663 7.91389 19.1663 9.16667C19.1663 10.4194 18.9257 11.6035 18.4445 12.7188C17.9632 13.834 17.3063 14.808 16.4736 15.6406C15.641 16.4733 14.667 17.1302 13.5518 17.6115C12.4365 18.0927 11.2525 18.3333 9.99967 18.3333ZM9.99967 16.9583C12.1386 16.9583 13.9719 16.1944 15.4997 14.6667C17.0275 13.1389 17.7913 11.3056 17.7913 9.16667C17.7913 7.02778 17.0275 5.19444 15.4997 3.66667C13.9719 2.13889 12.1386 1.375 9.99967 1.375C7.86079 1.375 6.02745 2.13889 4.49967 3.66667C2.9719 5.19444 2.20801 7.02778 2.20801 9.16667C2.20801 11.3056 2.9719 13.1389 4.49967 14.6667C6.02745 16.1944 7.86079 16.9583 9.99967 16.9583Z" fill="#9CA6CE"/>
</svg>
