<svg viewBox="0 0 30 31" fill="none" xmlns="http://www.w3.org/2000/svg">
<path d="M20.5125 22.5102L22.2 20.8227L16.2375 14.8227V7.28522H13.9875V15.7227L20.5125 22.5102ZM15 30.2727C12.95 30.2727 11.0125 29.879 9.1875 29.0915C7.3625 28.304 5.76875 27.229 4.40625 25.8665C3.04375 24.504 1.96875 22.9102 1.18125 21.0852C0.39375 19.2602 0 17.3227 0 15.2727C0 13.2227 0.39375 11.2852 1.18125 9.46022C1.96875 7.63522 3.04375 6.04147 4.40625 4.67897C5.76875 3.31647 7.3625 2.24147 9.1875 1.45397C11.0125 0.66647 12.95 0.27272 15 0.27272C17.05 0.27272 18.9875 0.66647 20.8125 1.45397C22.6375 2.24147 24.2313 3.31647 25.5938 4.67897C26.9563 6.04147 28.0313 7.63522 28.8188 9.46022C29.6063 11.2852 30 13.2227 30 15.2727C30 17.3227 29.6063 19.2602 28.8188 21.0852C28.0313 22.9102 26.9563 24.504 25.5938 25.8665C24.2313 27.229 22.6375 28.304 20.8125 29.0915C18.9875 29.879 17.05 30.2727 15 30.2727ZM15 28.0227C18.5 28.0227 21.5 26.7727 24 24.2727C26.5 21.7727 27.75 18.7727 27.75 15.2727C27.75 11.7727 26.5 8.77272 24 6.27272C21.5 3.77272 18.5 2.52272 15 2.52272C11.5 2.52272 8.5 3.77272 6 6.27272C3.5 8.77272 2.25 11.7727 2.25 15.2727C2.25 18.7727 3.5 21.7727 6 24.2727C8.5 26.7727 11.5 28.0227 15 28.0227Z" fill="#9CA6CE"/>
</svg>
