<svg viewBox="0 0 85 71" fill="none" xmlns="http://www.w3.org/2000/svg">
<path d="M70.4 26.0063L69.5281 22.6156C68.8823 22.3573 68.2203 22.0021 67.5422 21.55C66.8641 21.0979 66.299 20.6135 65.8469 20.0969L61.5844 21.6469L59.6469 18.2563L63.0375 15.5437C62.9083 15.2208 62.7953 14.8656 62.6984 14.4781C62.6016 14.0906 62.5531 13.7031 62.5531 13.3156C62.5531 12.9281 62.6016 12.5406 62.6984 12.1531C62.7953 11.7656 62.9083 11.4104 63.0375 11.0875L59.6469 8.375L61.5844 4.98438L65.8469 6.53438C66.299 6.01771 66.8641 5.51719 67.5422 5.03281C68.2203 4.54844 68.8823 4.20937 69.5281 4.01562L70.4 0.625H74.0813L74.9531 4.01562C75.599 4.20937 76.2609 4.54844 76.9391 5.03281C77.6172 5.51719 78.1823 6.01771 78.6344 6.53438L82.8969 4.98438L84.8344 8.375L81.4437 11.0875C81.5729 11.4104 81.6859 11.7656 81.7828 12.1531C81.8797 12.5406 81.9281 12.9281 81.9281 13.3156C81.9281 13.7031 81.8797 14.0906 81.7828 14.4781C81.6859 14.8656 81.5729 15.2208 81.4437 15.5437L84.8344 18.2563L82.8969 21.6469L78.6344 20.0969C78.1823 20.6135 77.6172 21.0979 76.9391 21.55C76.2609 22.0021 75.599 22.3573 74.9531 22.6156L74.0813 26.0063H70.4ZM72.2406 18.9344C73.8552 18.9344 75.1953 18.4016 76.2609 17.3359C77.3266 16.2703 77.8594 14.9302 77.8594 13.3156C77.8594 11.701 77.3266 10.3609 76.2609 9.29531C75.1953 8.22969 73.8552 7.69687 72.2406 7.69687C70.626 7.69687 69.2859 8.22969 68.2203 9.29531C67.1547 10.3609 66.6219 11.701 66.6219 13.3156C66.6219 14.9302 67.1547 16.2703 68.2203 17.3359C69.2859 18.4016 70.626 18.9344 72.2406 18.9344ZM59.9375 47.0281L59.7438 44.2188C59.2917 43.9604 58.8234 43.6698 58.3391 43.3469C57.8547 43.024 57.4187 42.701 57.0312 42.3781L54.5125 43.7344L52.3812 40.6344L54.9 38.7938C54.7708 38.5354 54.7062 38.2932 54.7062 38.0672V36.6141C54.7062 36.388 54.7708 36.1458 54.9 35.8875L52.3812 34.0469L54.5125 30.9469L57.0312 32.3031L58.3875 31.3344C58.8396 31.0115 59.2917 30.7208 59.7438 30.4625L59.9375 27.6531H63.8125L64.0062 30.4625C64.4583 30.7208 64.9104 31.0115 65.3625 31.3344L66.7188 32.3031L69.2375 30.9469L71.3688 34.0469L68.85 35.8875C68.9792 36.1458 69.0438 36.388 69.0438 36.6141V38.0672C69.0438 38.2932 68.9792 38.5354 68.85 38.7938L71.3688 40.6344L69.2375 43.7344L66.7188 42.3781C66.3313 42.701 65.8953 43.024 65.4109 43.3469C64.9266 43.6698 64.4583 43.9604 64.0062 44.2188L63.8125 47.0281H59.9375ZM61.875 41.0219C62.9083 41.0219 63.7802 40.6667 64.4906 39.9562C65.201 39.2458 65.5563 38.374 65.5563 37.3406C65.5563 36.3073 65.201 35.4354 64.4906 34.725C63.7802 34.0146 62.9083 33.6594 61.875 33.6594C60.8417 33.6594 59.9698 34.0146 59.2594 34.725C58.549 35.4354 58.1937 36.3073 58.1937 37.3406C58.1937 38.374 58.549 39.2458 59.2594 39.9562C59.9698 40.6667 60.8417 41.0219 61.875 41.0219ZM30.6812 40.8281C26.4187 40.8281 22.9312 39.4396 20.2187 36.6625C17.5062 33.8854 16.15 30.4302 16.15 26.2969H15.1812C14.6646 26.2969 14.2125 26.1031 13.825 25.7156C13.4375 25.3281 13.2437 24.876 13.2437 24.3594C13.2437 23.8427 13.4375 23.3906 13.825 23.0031C14.2125 22.6156 14.6646 22.4219 15.1812 22.4219H16.15C16.15 19.8385 16.7958 17.5135 18.0875 15.4469C19.3792 13.3802 21.0583 11.701 23.125 10.4094V14.1875C23.125 14.575 23.2703 14.9141 23.5609 15.2047C23.8516 15.4953 24.1906 15.6406 24.5781 15.6406C25.0302 15.6406 25.3854 15.4953 25.6437 15.2047C25.9021 14.9141 26.0312 14.575 26.0312 14.1875V9.15C26.5479 9.02083 27.2583 8.90781 28.1625 8.81094C29.0667 8.71406 29.9385 8.66562 30.7781 8.66562C31.6177 8.66562 32.4896 8.71406 33.3937 8.81094C34.2979 8.90781 35.0083 9.02083 35.525 9.15V14.1875C35.525 14.575 35.6542 14.9141 35.9125 15.2047C36.1708 15.4953 36.526 15.6406 36.9781 15.6406C37.3656 15.6406 37.7047 15.4953 37.9953 15.2047C38.2859 14.9141 38.4312 14.575 38.4312 14.1875V10.4094C40.4979 11.701 42.1448 13.3802 43.3719 15.4469C44.599 17.5135 45.2125 19.8385 45.2125 22.4219H46.1812C46.6979 22.4219 47.15 22.6156 47.5375 23.0031C47.925 23.3906 48.1187 23.8427 48.1187 24.3594C48.1187 24.876 47.925 25.3281 47.5375 25.7156C47.15 26.1031 46.6979 26.2969 46.1812 26.2969H45.2125C45.2125 30.4302 43.8562 33.8854 41.1437 36.6625C38.4312 39.4396 34.9437 40.8281 30.6812 40.8281ZM30.6812 35.0156C33.3937 35.0156 35.525 34.2083 37.075 32.5938C38.625 30.9792 39.4 28.8802 39.4 26.2969H21.9625C21.9625 28.8802 22.7375 30.9792 24.2875 32.5938C25.8375 34.2083 27.9687 35.0156 30.6812 35.0156ZM0.0687485 70.375V61.4625C0.0687485 59.2667 0.585415 57.4422 1.61875 55.9891C2.65208 54.5359 4.10521 53.3573 5.97812 52.4531C9.46562 50.774 13.1953 49.3854 17.1672 48.2875C21.1391 47.1896 25.6437 46.6406 30.6812 46.6406C35.7187 46.6406 40.2234 47.1896 44.1953 48.2875C48.1672 49.3854 51.8969 50.774 55.3844 52.4531C57.2573 53.3573 58.7104 54.5359 59.7438 55.9891C60.7771 57.4422 61.2938 59.2667 61.2938 61.4625V70.375H0.0687485Z" fill="#FF95B5"/>
</svg>
