<svg viewBox="0 0 460 588" fill="none" xmlns="http://www.w3.org/2000/svg">
<path d="M429 76.3681V448.631C429.001 456.364 425.957 463.784 420.529 469.281C415.101 474.777 407.728 477.905 400.012 477.986C399.905 477.997 399.798 478.002 399.691 477.999H356.45C321.853 477.999 288.672 464.228 264.208 439.715C239.744 415.202 226 381.955 226 347.288V76.368C226 68.5792 229.088 61.1093 234.585 55.6017C240.081 50.0941 247.536 47 255.309 47H272.83C264.713 70.726 374.878 80.7149 380.926 47H399.691C407.464 47 414.919 50.0942 420.416 55.6018C425.912 61.1094 429 68.5793 429 76.3681V76.3681Z" fill="#FF95B5"/>
<path d="M408.703 525H243.151C230.307 524.986 217.993 519.883 208.91 510.81C199.828 501.738 194.719 489.438 194.704 476.608V216.598C193.795 215.946 193.055 215.087 192.545 214.092C192.034 213.097 191.769 211.995 191.77 210.877V184.727C191.769 183.609 192.034 182.507 192.545 181.513C193.055 180.518 193.795 179.659 194.704 179.007V171.989C193.795 171.337 193.055 170.478 192.545 169.483C192.034 168.489 191.769 167.387 191.77 166.269V140.118C191.769 139 192.034 137.898 192.545 136.904C193.055 135.909 193.795 135.05 194.704 134.398V121.714C193.582 121.112 192.644 120.216 191.992 119.123C191.339 118.03 190.997 116.78 191 115.507V89.3575C190.996 88.0846 191.339 86.8347 191.991 85.7412C192.644 84.6478 193.582 83.7519 194.704 83.1494V48.392C194.719 35.5619 199.828 23.2616 208.91 14.1895C217.993 5.11741 230.307 0.0144029 243.151 0H408.703C421.547 0.0144547 433.861 5.11754 442.943 14.1897C452.025 23.2619 457.134 35.5622 457.148 48.3922V124.156C458.021 124.701 458.74 125.459 459.239 126.358C459.738 127.257 460 128.268 460 129.296V179.158C460 180.186 459.738 181.197 459.239 182.097C458.74 182.996 458.021 183.754 457.148 184.3V476.608C457.134 489.438 452.025 501.738 442.943 510.81C433.861 519.882 421.547 524.986 408.703 525V525ZM243.151 6.43261C232.014 6.44504 221.337 10.8698 213.462 18.736C205.587 26.6022 201.156 37.2675 201.144 48.3922V88.6211L198.046 88.7404C197.885 88.7462 197.733 88.8134 197.62 88.9282C197.507 89.043 197.442 89.1967 197.44 89.3576V115.507C197.443 115.668 197.508 115.821 197.621 115.936C197.733 116.051 197.886 116.118 198.046 116.124L201.144 116.242V138.915L198.694 139.518C198.558 139.551 198.438 139.627 198.35 139.736C198.262 139.844 198.213 139.979 198.21 140.118V166.269C198.213 166.408 198.262 166.543 198.35 166.651C198.438 166.76 198.558 166.836 198.694 166.869L201.144 167.472V183.524L198.694 184.127C198.558 184.159 198.438 184.236 198.35 184.345C198.262 184.453 198.213 184.587 198.21 184.727V210.877C198.213 211.016 198.262 211.151 198.35 211.26C198.437 211.368 198.558 211.445 198.694 211.478L201.144 212.081V476.608C201.156 487.733 205.587 498.398 213.462 506.264C221.337 514.13 232.014 518.555 243.151 518.567H408.703C419.839 518.555 430.516 514.13 438.391 506.264C446.266 498.397 450.696 487.732 450.708 476.608V178.792H453.56V129.663H450.708V48.392C450.696 37.2675 446.266 26.6024 438.391 18.7362C430.516 10.87 419.839 6.44527 408.703 6.43251L243.151 6.43261Z" fill="#3F3D56"/>
<path d="M328.5 435C343.688 435 356 422.688 356 407.5C356 392.312 343.688 380 328.5 380C313.312 380 301 392.312 301 407.5C301 422.688 313.312 435 328.5 435Z" fill="white"/>
<path d="M305.131 525.293L248.406 469.576C245.645 466.842 242.368 464.677 238.765 463.206C235.161 461.734 231.301 460.985 227.405 461H227.206C223.281 461.012 219.397 461.797 215.78 463.312C212.162 464.826 208.882 467.04 206.13 469.824C193.447 482.594 186.233 499.76 186.006 517.712C185.778 535.664 192.554 553.005 204.91 566.09C205.508 566.734 206.13 567.354 206.753 567.973C210.203 571.385 214.012 574.418 218.113 577.02C229.327 584.229 242.404 588.043 255.755 588H256.179C265.343 587.969 274.409 586.13 282.855 582.591C291.3 579.051 298.956 573.881 305.38 567.378C310.946 561.76 314.046 554.174 313.999 546.285C313.953 538.395 310.763 530.846 305.131 525.293V525.293ZM301.842 563.884C291.311 574.439 277.443 581.061 262.578 582.632C247.712 584.203 232.756 580.628 220.231 572.509C216.648 570.15 213.302 567.452 210.241 564.454C198.018 552.444 191.091 536.095 190.984 519.004C190.877 501.913 197.597 485.48 209.668 473.318C211.962 470.992 214.699 469.143 217.718 467.88C220.738 466.616 223.98 465.962 227.256 465.957H227.405C230.649 465.946 233.863 466.571 236.863 467.795C239.864 469.02 242.593 470.821 244.893 473.095L301.618 528.837C306.314 533.458 308.975 539.744 309.017 546.314C309.059 552.885 306.479 559.204 301.842 563.884V563.884Z" fill="#3F3D56"/>
<path d="M119.106 341.812L62.381 285.642C56.7976 280.088 49.2454 276.98 41.3801 277H41.2057C37.2756 277.016 33.3875 277.812 29.7659 279.342C26.1443 280.873 22.8609 283.107 20.1051 285.916C9.61964 296.592 2.82079 310.355 0.704753 325.187C-1.41128 340.019 1.26685 355.141 8.3467 368.336L8.37164 368.361C11.2923 373.758 14.92 378.739 19.1585 383.171C19.6318 383.721 20.1799 384.27 20.7279 384.82C33.7543 397.783 51.3759 405.04 69.7301 405H70.1785C79.3437 404.961 88.4105 403.103 96.8553 399.532C105.3 395.961 112.956 390.749 119.38 384.195C122.138 381.394 124.319 378.076 125.798 374.43C127.277 370.784 128.025 366.882 127.999 362.946C127.974 359.011 127.175 355.119 125.649 351.492C124.123 347.866 121.9 344.576 119.106 341.812V341.812ZM115.817 380.699C109.855 386.78 102.749 391.617 94.9116 394.931C87.0741 398.245 78.6595 399.969 70.1536 400.005H69.7301C56.956 400 44.4685 396.208 33.8381 389.107C23.2077 382.006 14.9093 371.911 9.98612 360.094C5.06298 348.277 3.73509 335.264 6.16948 322.692C8.60386 310.12 14.6917 298.55 23.6675 289.438C28.3119 284.73 34.6297 282.063 41.234 282.021C47.8383 281.979 54.1895 284.565 58.8933 289.213L115.618 345.358C120.311 350.023 122.967 356.362 123.005 362.987C123.042 369.612 120.457 375.982 115.817 380.699L115.817 380.699Z" fill="#3F3D56"/>
<path d="M309 542.47L246.522 481.205C242.425 477.196 236.894 474.965 231.142 475C225.39 475.036 219.887 477.335 215.841 481.394C210.778 486.471 206.774 492.489 204.056 499.104C201.338 505.719 199.96 512.801 200.001 519.945C200.042 527.089 201.5 534.155 204.293 540.738C207.086 547.322 211.159 553.295 216.278 558.315C221.398 563.336 227.464 567.305 234.129 569.996C240.795 572.687 247.93 574.047 255.125 573.999C262.321 573.95 269.436 572.494 276.064 569.714C282.693 566.934 288.704 562.884 293.755 557.795L309 542.47Z" fill="#FF95B5"/>
<path d="M123 359.152L60.5218 297.267C56.4249 293.218 50.8936 290.965 45.1418 291C39.3899 291.036 33.8871 293.359 29.8406 297.458C24.7785 302.587 20.7741 308.666 18.0562 315.347C15.3383 322.029 13.9602 329.182 14.0009 336.399C14.0415 343.615 15.5 350.752 18.293 357.402C21.086 364.053 25.1588 370.086 30.2784 375.157C35.3979 380.228 41.4639 384.237 48.1295 386.955C54.7951 389.674 61.9296 391.048 69.1251 390.999C76.3205 390.95 83.4358 389.479 90.0642 386.671C96.6925 383.863 102.704 379.771 107.755 374.632L123 359.152Z" fill="#FF95B5"/>
<path d="M240 581.063L238.505 585C231.478 582.334 224.667 579.659 218.072 576.976C101.254 529.304 45.4861 473.507 8.18309 367.597L8.15815 367.572C6.38894 362.588 4.66954 357.487 3 352.271L6.93717 351C8.25362 356.017 10.1783 360.854 12.6684 365.404C14.7117 371.21 16.8133 376.867 18.9729 382.374C54.0332 471.763 105.739 522.849 204.865 565.986C209.849 568.154 214.957 570.306 220.19 572.44C226.266 576.4 232.962 579.314 240 581.063V581.063Z" fill="#3F3D56"/>
<path d="M61.2892 399.99L57.79 403.532L187.067 531.171L190.566 527.629L61.2892 399.99Z" fill="#3F3D56"/>
</svg>
