<svg width="398" height="52" viewBox="0 0 398 52" fill="none" xmlns="http://www.w3.org/2000/svg">
<path d="M6.0387 26.4586C5.30251 26.936 4.59229 27.4985 3.92842 28.1442C-0.229079 32.1909 -1.18037 38.0952 1.53999 41.8662L3.641 41.337L3.04759 43.4315C6.70998 46.2829 12.6143 45.5168 16.7718 41.4702C17.9901 40.2841 18.9321 38.939 19.5886 37.5327C19.507 39.3701 19.8371 41.3259 20.6252 43.2261C22.856 48.5939 27.9796 51.6395 32.4653 50.4701L32.7416 48.3108L34.4643 49.6319C38.4438 47.2469 39.8902 41.4443 37.6594 36.0784C36.9622 34.4002 35.9812 32.9477 34.8241 31.782C37.0122 32.239 39.4767 32.0799 41.8893 31.1917C47.3244 29.1878 50.577 24.179 49.6127 19.6236L47.4783 19.2516L48.8672 17.5808C46.6698 13.4805 40.9658 11.7745 35.5306 13.7784C35.5009 13.7895 35.4713 13.8006 35.4435 13.8117C35.4657 13.7285 35.4898 13.6452 35.5102 13.5601C36.9529 7.92773 34.6943 2.39345 30.4163 0.606044L28.8994 2.16031L28.3171 0.0620518C23.7109 -0.448635 19.0749 3.30195 17.6304 8.93615C17.4542 9.62632 17.3318 10.3165 17.2632 10.9974C17.2447 10.9733 17.2243 10.9493 17.2057 10.9271C13.484 6.47153 7.69094 5.0986 3.75411 7.55582L4.13055 9.70033L2.09445 8.95651C-0.998646 12.424 -0.657435 18.3968 3.06243 22.8523C4.16764 24.1772 5.45828 25.2282 6.8268 25.9886C6.56348 26.1311 6.30016 26.2884 6.0387 26.4586Z" fill="#FF95B5"/>
<path d="M88.1026 14.4585C88.1026 9.58412 88.1366 4.92701 88.2433 2.43795H88.1366C87.1569 5.78139 82.2002 18.0489 79.0914 25.9063H77.2388C74.9011 19.8268 69.765 6.17155 68.6495 2.39845H68.5816C68.7562 5.24309 68.8241 11.041 68.8241 15.308V25.9063H66.9375V1.01562H69.765C73.1163 9.54955 77.3454 20.7158 78.2524 23.5258H78.3203C78.878 21.7134 83.7668 9.30262 87.1908 1.01562H89.9844V25.9063H88.0978V14.4585H88.1026Z" fill="white"/>
<path d="M117.641 13.2881C117.641 19.8901 114.21 25.9062 106.939 25.9062C100.307 25.9062 96.4375 20.4086 96.4375 13.4609C96.4375 6.6141 100.172 1.01563 107.172 1.01563C113.636 1.01083 117.641 6.23478 117.641 13.2881ZM98.3956 13.3553C98.3956 18.9202 101.391 24.1777 107.046 24.1777C113.135 24.1777 115.696 19.0594 115.696 13.3217C115.696 7.68482 112.804 2.74415 107.116 2.74415C101.05 2.73935 98.3956 7.89128 98.3956 13.3553Z" fill="white"/>
<path d="M122.25 24.9062V0.0205675H125.118C129.027 5.99511 138.204 19.8946 139.782 22.5954H139.817C139.603 19.0058 139.638 15.3421 139.638 11.2883V0.015625H141.609V24.9013H138.955C135.226 19.1391 125.905 4.67182 124.112 1.93143H124.077C124.257 5.20015 124.222 8.82932 124.222 13.3423V24.8964H122.25V24.9062Z" fill="white"/>
<path d="M168.344 13.2881C168.344 19.8901 164.764 25.9062 157.176 25.9062C150.257 25.9062 146.219 20.4086 146.219 13.4609C146.219 6.6141 150.115 1.01563 157.42 1.01563C164.165 1.01083 168.344 6.23478 168.344 13.2881ZM148.257 13.3553C148.257 18.9202 151.383 24.1777 157.284 24.1777C163.638 24.1777 166.31 19.0594 166.31 13.3217C166.31 7.68482 163.292 2.74415 157.357 2.74415C151.032 2.73935 148.257 7.89128 148.257 13.3553Z" fill="white"/>
<path d="M192.102 25.627H190.55C190.411 25.3478 190.344 24.1008 190.31 21.7466C189.448 23.4124 187.551 25.9063 182.517 25.9063C175.586 25.9063 172.031 20.6007 172.031 13.7017C172.031 6.45594 175.825 1.01562 182.895 1.01562C188.102 1.01562 191.551 3.75504 192.312 8.22765H190.449C189.415 4.79496 187.034 2.74882 182.828 2.74882C176.793 2.74882 174.034 7.46216 174.034 13.6006C174.034 19.1468 176.687 24.1731 182.589 24.1731C188.624 24.1731 190.315 20.2204 190.315 14.8475V14.5683H182.522V12.8351H192.111V25.627H192.102Z" fill="white"/>
<path d="M201.654 17.2982L198.729 25.9063H196.922L205.369 1.01562H207.473L216.281 25.9063H214.342L211.352 17.2982H201.654ZM210.759 15.5203C208.194 8.12229 206.88 4.56649 206.424 2.89724H206.392C205.835 4.78379 204.356 9.19397 202.284 15.5203H210.759Z" fill="white"/>
<path d="M223.183 2.79353H215.359V1.01562H232.875V2.79353H225.019V25.9063H223.188V2.79353H223.183Z" fill="white"/>
<path d="M237.136 17.2982L233.932 25.9063H231.953L241.205 1.01562H243.509L253.156 25.9063H251.032L247.758 17.2982H237.136ZM247.108 15.5203C244.299 8.12229 242.86 4.56649 242.36 2.89724H242.325C241.715 4.78379 240.095 9.19397 237.826 15.5203H247.108Z" fill="white"/>
<path d="M257.898 14.2758V25.9063H255.922V1.01562H264.937C269.896 1.01562 272.516 3.64791 272.516 7.55929C272.516 10.7249 270.61 12.7843 267.811 13.3918C270.395 13.9943 272.121 15.6685 272.121 19.9009V20.859C272.121 22.6023 271.977 24.9482 272.446 25.9063H270.47C270.001 24.8395 270.111 22.8493 270.111 20.7158V20.0737C270.111 15.9846 268.889 14.2758 264.074 14.2758H257.898V14.2758ZM257.898 12.4979H263.969C268.39 12.4979 270.435 10.8632 270.435 7.58892C270.435 4.53192 268.425 2.78859 264.508 2.78859H257.898V12.4979Z" fill="white"/>
<path d="M279.891 1.01562V25.9063H278.047V1.01562H279.891Z" fill="white"/>
<path d="M340.463 13.6733H327.891V24.1283H341.656L341.373 25.9063H325.984V1.01562H341.089V2.79353H327.887V11.8954H340.458V13.6733H340.463Z" fill="white"/>
<path d="M346.266 1.01562H354.331C361.006 1.01562 365.625 5.7814 365.625 13.2486C365.625 20.6812 361.107 25.9063 354.297 25.9063H346.27V1.01562H346.266ZM348.143 24.1333H354.017C360.446 24.1333 363.607 19.5107 363.607 13.3572C363.607 7.88031 360.76 2.79353 354.017 2.79353H348.143V24.1333Z" fill="white"/>
<path d="M373 1.01562V25.9063H371.156V1.01562H373Z" fill="white"/>
<path d="M382.567 17.2982L379.503 25.9063H377.609L386.459 1.01562H388.663L397.891 25.9063H395.859L392.727 17.2982H382.567ZM392.106 15.5203C389.419 8.12229 388.042 4.56649 387.564 2.89724H387.53C386.947 4.78379 385.398 9.19397 383.227 15.5203H392.106Z" fill="white"/>
<path d="M78.8576 42.205H68.5036V50.3359H79.8438L79.6117 51.7188H66.9375V32.3594H79.3797V33.7422H68.5036V40.8222H78.8576V42.205V42.205Z" fill="white"/>
<path d="M83.5312 32.3594H90.4428C96.1628 32.3594 100.125 36.0653 100.125 41.8731C100.125 47.6533 96.2521 51.7188 90.413 51.7188H83.5312V32.3594ZM85.14 50.3313H90.1747C95.6861 50.3313 98.3971 46.736 98.3971 41.9515C98.3971 37.6924 95.9542 33.7376 90.1747 33.7376H85.14V50.3313Z" fill="white"/>
<path d="M105.656 32.3594V51.7188H104.734V32.3594H105.656Z" fill="white"/>
<path d="M116.345 33.7422H109.344V32.3594H125.016V33.7422H117.984V51.7188H116.345V33.7422Z" fill="white"/>
<path d="M144.375 41.4373C144.375 46.8175 141.241 51.7187 134.603 51.7187C128.549 51.7187 125.016 47.24 125.016 41.5781C125.016 36.0008 128.427 31.4375 134.818 31.4375C140.718 31.4375 144.375 35.6909 144.375 41.4373ZM126.798 41.4936C126.798 46.0287 129.533 50.3103 134.695 50.3103C140.257 50.3103 142.593 46.1414 142.593 41.4655C142.593 36.874 139.95 32.8459 134.757 32.8459C129.226 32.8459 126.798 37.0383 126.798 41.4936Z" fill="white"/>
<path d="M149.709 42.6752V51.7188H148.062V32.3594H155.575C159.706 32.3594 161.891 34.4059 161.891 37.4481C161.891 39.9095 160.304 41.5136 157.97 41.9838C160.125 42.4539 161.561 43.7537 161.561 47.0448V47.7916C161.561 49.1467 161.442 50.972 161.831 51.7188H160.185C159.795 50.8891 159.885 49.3403 159.885 47.6809V47.1831C159.885 44.0026 158.868 42.6752 154.857 42.6752H149.709ZM149.709 41.2923H154.767C158.449 41.2923 160.155 40.0201 160.155 37.4758C160.155 35.0973 158.478 33.7422 155.216 33.7422H149.709V41.2923Z" fill="white"/>
<path d="M167.422 32.3594V51.7188H166.5V32.3594H167.422Z" fill="white"/>
<path d="M176.088 45.0259L173.581 51.7188H172.031L179.272 32.3594H181.075L188.625 51.7188H186.963L184.399 45.0259H176.088ZM183.887 43.6431C181.69 37.8906 180.563 35.125 180.168 33.8252H180.14C179.661 35.2909 178.394 38.7203 176.619 43.6431H183.887Z" fill="white"/>
<path d="M192.312 32.3594H193.933V50.3359H205.219L204.919 51.7188H192.312V32.3594V32.3594Z" fill="white"/>
<path d="M317.243 14.4699C317.243 9.7154 317.277 5.17284 317.383 2.745H317.277C316.304 6.00621 311.381 17.972 308.293 25.6361H306.453C304.131 19.7062 299.03 6.38677 297.922 2.70647H297.854C298.028 5.48114 298.095 11.1365 298.095 15.2985V25.6361H296.221V1.35767H299.03C302.358 9.68168 306.559 20.5732 307.46 23.3142H307.527C308.081 21.5463 312.937 9.44082 316.338 1.35767H319.112V25.6361H317.238V14.4699H317.243Z" fill="white"/>
</svg>
