<svg width="349" height="361" viewBox="0 0 349 361" fill="none" xmlns="http://www.w3.org/2000/svg">
<g filter="url(#filter0_d_3_432)">
<path d="M45.8573 184.099C40.8228 187.422 35.9657 191.338 31.4258 195.834C2.99382 224.007 -3.5118 265.114 15.092 291.367L29.4601 287.683L25.402 302.266C50.448 322.117 90.8259 316.784 119.258 288.611C127.59 280.353 134.032 270.988 138.521 261.198C137.963 273.99 140.22 287.606 145.61 300.836C160.866 338.207 195.905 359.41 226.581 351.269L228.471 336.236L240.252 345.433C267.467 328.828 277.358 288.43 262.102 251.072C257.334 239.388 250.626 229.276 242.712 221.16C257.676 224.342 274.53 223.234 291.029 217.051C328.198 203.1 350.442 168.228 343.847 136.512L329.251 133.923L338.749 122.291C323.722 93.7439 284.713 81.8666 247.544 95.8179C247.341 95.8952 247.138 95.9725 246.948 96.0498C247.1 95.4701 247.265 94.8904 247.404 94.2978C257.271 55.0849 241.825 16.5546 212.568 4.11055L202.195 14.9315L198.213 0.323227C166.712 -3.23222 135.008 22.8797 125.129 62.1055C123.925 66.9106 123.088 71.7156 122.619 76.4562C122.492 76.2887 122.352 76.1212 122.225 75.9666C96.7736 44.9467 57.1565 35.3882 30.2337 52.4955L32.8081 67.4258L18.8837 62.2473C-2.26902 86.3882 0.064415 127.971 25.5035 158.991C33.0617 168.215 41.888 175.532 51.247 180.827C49.4462 181.818 47.6454 182.913 45.8573 184.099Z" fill="#FF95B5"/>
</g>
<defs>
<filter id="filter0_d_3_432" x="0.560425" y="0" width="348.44" height="361" filterUnits="userSpaceOnUse" color-interpolation-filters="sRGB">
<feFlood flood-opacity="0" result="BackgroundImageFix"/>
<feColorMatrix in="SourceAlpha" type="matrix" values="0 0 0 0 0 0 0 0 0 0 0 0 0 0 0 0 0 0 127 0" result="hardAlpha"/>
<feOffset dy="4"/>
<feGaussianBlur stdDeviation="2"/>
<feComposite in2="hardAlpha" operator="out"/>
<feColorMatrix type="matrix" values="0 0 0 0 0 0 0 0 0 0 0 0 0 0 0 0 0 0 0.25 0"/>
<feBlend mode="normal" in2="BackgroundImageFix" result="effect1_dropShadow_3_432"/>
<feBlend mode="normal" in="SourceGraphic" in2="effect1_dropShadow_3_432" result="shape"/>
</filter>
</defs>
</svg>
