<svg viewBox="0 0 71 79" fill="none" xmlns="http://www.w3.org/2000/svg">
<path d="M35.5969 0.75C39.7948 0.75 43.912 1.26667 47.9484 2.3C51.9849 3.33333 55.8438 4.78646 59.525 6.65938C59.8479 6.78854 60.0255 6.98229 60.0578 7.24062C60.0901 7.49896 60.0417 7.725 59.9125 7.91875C59.7833 8.1125 59.6057 8.27396 59.3797 8.40312C59.1537 8.53229 58.8792 8.53229 58.5563 8.40312C55.0688 6.59479 51.3714 5.20625 47.4641 4.2375C43.5568 3.26875 39.601 2.78438 35.5969 2.78438C31.5927 2.78438 27.6854 3.2526 23.875 4.18906C20.0646 5.12552 16.4156 6.53021 12.9281 8.40312C12.6052 8.53229 12.363 8.54844 12.2016 8.45156C12.0401 8.35469 11.8948 8.20937 11.7656 8.01562C11.6365 7.88646 11.5719 7.69271 11.5719 7.43437C11.5719 7.17604 11.6688 6.98229 11.8625 6.85313C15.5438 4.91563 19.4026 3.41406 23.4391 2.34844C27.4755 1.28281 31.5281 0.75 35.5969 0.75ZM35.5969 10.5344C42.5719 10.5344 49.1432 12.0198 55.3109 14.9906C61.4786 17.9615 66.5969 22.224 70.6656 27.7781C70.8594 28.101 70.9401 28.3594 70.9078 28.5531C70.8755 28.7469 70.7625 28.9406 70.5688 29.1344C70.375 29.3281 70.1328 29.425 69.8422 29.425C69.5516 29.425 69.2771 29.2635 69.0188 28.9406C65.2083 23.6448 60.3484 19.576 54.4391 16.7344C48.5297 13.8927 42.249 12.4719 35.5969 12.4719C28.9448 12.4719 22.7125 13.9089 16.9 16.7828C11.0875 19.6568 6.24376 23.7094 2.36876 28.9406C2.11043 29.2635 1.86824 29.4573 1.6422 29.5219C1.41616 29.5865 1.17397 29.5542 0.915638 29.425C0.657304 29.2958 0.528137 29.0859 0.528137 28.7953C0.528137 28.5047 0.592721 28.2302 0.721888 27.9719C4.72605 22.4177 9.79584 18.1229 15.9313 15.0875C22.0667 12.0521 28.6219 10.5344 35.5969 10.5344ZM35.5969 29.6187C41.5385 29.6187 46.6568 31.5885 50.9516 35.5281C55.2464 39.4677 57.3938 44.3115 57.3938 50.0594C57.3938 50.3823 57.313 50.6245 57.1516 50.7859C56.9901 50.9474 56.7479 51.0281 56.425 51.0281C56.1021 51.0281 55.8438 50.9474 55.65 50.7859C55.4563 50.6245 55.3594 50.3823 55.3594 50.0594C55.3594 44.8281 53.4057 40.4365 49.4985 36.8844C45.5912 33.3323 40.9573 31.5562 35.5969 31.5562C30.2365 31.5562 25.6349 33.3323 21.7922 36.8844C17.9495 40.4365 16.0281 44.8281 16.0281 50.0594C16.0281 55.549 16.9807 60.2313 18.886 64.1063C20.7912 67.9813 23.6167 71.8563 27.3625 75.7313C27.6208 75.9896 27.7339 76.2318 27.7016 76.4578C27.6693 76.6839 27.5563 76.8938 27.3625 77.0875C27.2333 77.2167 27.0396 77.3135 26.7813 77.3781C26.5229 77.4427 26.2323 77.3458 25.9094 77.0875C22.2281 73.1479 19.3219 69.063 17.1906 64.8328C15.0594 60.6026 13.9938 55.6781 13.9938 50.0594C13.9938 44.3115 16.1089 39.4677 20.3391 35.5281C24.5693 31.5885 29.6552 29.6187 35.5969 29.6187ZM35.5 48.9937C35.8229 48.9937 36.0651 49.0906 36.2266 49.2844C36.388 49.4781 36.4688 49.7365 36.4688 50.0594C36.4688 55.2906 38.3901 59.6016 42.2328 62.9922C46.0755 66.3828 50.5156 68.0781 55.5531 68.0781C56.0698 68.0781 56.6833 68.0458 57.3938 67.9813C58.1042 67.9167 58.8792 67.8198 59.7188 67.6906C60.0417 67.626 60.3 67.6745 60.4938 67.8359C60.6875 67.9974 60.8167 68.175 60.8813 68.3688C60.9458 68.6271 60.9297 68.8531 60.8328 69.0469C60.7359 69.2406 60.5261 69.3698 60.2031 69.4344C59.0406 69.7573 58.0234 69.9349 57.1516 69.9672C56.2797 69.9995 55.7469 70.0156 55.5531 70.0156C49.8698 70.0156 44.9453 68.1266 40.7797 64.3484C36.6141 60.5703 34.5313 55.8073 34.5313 50.0594C34.5313 49.7365 34.612 49.4781 34.7734 49.2844C34.9349 49.0906 35.1771 48.9937 35.5 48.9937ZM35.5969 39.3062C38.6969 39.3062 41.3609 40.3396 43.5891 42.4062C45.8172 44.4729 46.9313 47.024 46.9313 50.0594C46.9313 52.5135 47.8839 54.5802 49.7891 56.2594C51.6943 57.9385 53.9063 58.7781 56.425 58.7781C58.8792 58.7781 61.0266 57.9385 62.8672 56.2594C64.7078 54.5802 65.6281 52.5135 65.6281 50.0594C65.6281 42.1156 62.6734 35.4635 56.7641 30.1031C50.8547 24.7427 43.799 22.0625 35.5969 22.0625C27.3948 22.0625 20.3391 24.7427 14.4297 30.1031C8.52032 35.4635 5.56564 42.1156 5.56564 50.0594C5.56564 51.6094 5.74324 53.6276 6.09845 56.1141C6.45366 58.6005 7.21251 61.426 8.37501 64.5906C8.50418 64.9135 8.50418 65.1557 8.37501 65.3172C8.24585 65.4786 8.08439 65.624 7.89064 65.7531C7.6323 65.8823 7.35782 65.9146 7.0672 65.85C6.77657 65.7854 6.56668 65.5917 6.43751 65.2687C5.59793 62.8146 4.93595 60.312 4.45157 57.7609C3.9672 55.2099 3.72501 52.6427 3.72501 50.0594C3.72501 41.7281 6.8896 34.6078 13.2188 28.6984C19.5479 22.7891 27.0073 19.8344 35.5969 19.8344C44.3802 19.8344 51.9203 22.7406 58.2172 28.5531C64.5141 34.3656 67.6625 41.5344 67.6625 50.0594C67.6625 53.0302 66.5646 55.549 64.3688 57.6156C62.1729 59.6823 59.525 60.7156 56.425 60.7156C53.2604 60.7156 50.5479 59.6823 48.2875 57.6156C46.0271 55.549 44.8969 53.0302 44.8969 50.0594C44.8969 47.5406 43.9766 45.4417 42.1359 43.7625C40.2953 42.0833 38.1156 41.2437 35.5969 41.2437C33.0781 41.2437 30.8823 42.0833 29.0094 43.7625C27.1365 45.4417 26.2 47.5406 26.2 50.0594C26.2 56.776 28.2344 62.3786 32.3031 66.8672C36.3719 71.3557 41.4417 74.5042 47.5125 76.3125C47.9 76.4417 48.1422 76.6031 48.2391 76.7969C48.3359 76.9906 48.3521 77.2167 48.2875 77.475C48.2229 77.7979 48.0938 78.0078 47.9 78.1047C47.7063 78.2016 47.4479 78.2177 47.125 78.1531C40.4729 76.4094 34.9995 73.0672 30.7047 68.1266C26.4099 63.1859 24.2625 57.1635 24.2625 50.0594C24.2625 47.024 25.3766 44.4729 27.6047 42.4062C29.8328 40.3396 32.4969 39.3062 35.5969 39.3062Z" fill="#FF95B5"/>
</svg>
