<svg viewBox="0 0 93 74" fill="none" xmlns="http://www.w3.org/2000/svg">
<path d="M4.94062 42.2375C3.26146 39.4604 2.01823 36.6672 1.21094 33.8578C0.403646 31.0484 0 28.2875 0 25.575C0 18.4708 2.48646 12.4323 7.45937 7.45938C12.4323 2.48646 18.4708 0 25.575 0C29.6437 0 33.5026 0.839584 37.1516 2.51875C40.8005 4.19792 43.9167 6.49063 46.5 9.39688C49.0833 6.49063 52.1995 4.19792 55.8484 2.51875C59.4974 0.839584 63.3562 0 67.425 0C74.5292 0 80.5677 2.48646 85.5406 7.45938C90.5135 12.4323 93 18.4708 93 25.575C93 28.2875 92.5964 31.0323 91.7891 33.8094C90.9818 36.5865 89.7385 39.3635 88.0594 42.1406C87.4135 41.3656 86.687 40.7036 85.8797 40.1547C85.0724 39.6057 84.2167 39.1375 83.3125 38.75C84.6042 36.4896 85.5729 34.2615 86.2188 32.0656C86.8646 29.8698 87.1875 27.7063 87.1875 25.575C87.1875 20.0854 85.2661 15.4193 81.4234 11.5766C77.5807 7.73385 72.9146 5.8125 67.425 5.8125C63.8729 5.8125 60.3693 6.86198 56.9141 8.96094C53.4589 11.0599 49.9875 14.2406 46.5 18.5031C43.0125 14.2406 39.5411 11.0599 36.0859 8.96094C32.6307 6.86198 29.1271 5.8125 25.575 5.8125C20.0854 5.8125 15.4193 7.73385 11.5766 11.5766C7.73385 15.4193 5.8125 20.0854 5.8125 25.575C5.8125 27.7063 6.13542 29.8698 6.78125 32.0656C7.42708 34.2615 8.39583 36.4896 9.6875 38.75C8.78333 39.1375 7.9276 39.6219 7.12031 40.2031C6.31302 40.7844 5.58646 41.4625 4.94062 42.2375ZM0 73.625V68.4906C0 65.9719 1.35625 63.9375 4.06875 62.3875C6.78125 60.8375 10.2687 60.0625 14.5312 60.0625C15.3708 60.0625 16.1458 60.0786 16.8562 60.1109C17.5667 60.1432 18.2771 60.224 18.9875 60.3531C18.4708 61.451 18.0833 62.5651 17.825 63.6953C17.5667 64.8255 17.4375 66.0365 17.4375 67.3281V73.625H0ZM23.25 73.625V67.3281C23.25 63.1302 25.3974 59.7396 29.6922 57.1562C33.987 54.5729 39.5896 53.2812 46.5 53.2812C53.475 53.2812 59.0938 54.5729 63.3563 57.1562C67.6188 59.7396 69.75 63.1302 69.75 67.3281V73.625H23.25ZM75.5625 73.625V67.3281C75.5625 66.0365 75.4495 64.8255 75.2234 63.6953C74.9974 62.5651 74.626 61.451 74.1094 60.3531C74.8198 60.224 75.5302 60.1432 76.2406 60.1109C76.951 60.0786 77.6937 60.0625 78.4688 60.0625C82.7958 60.0625 86.2995 60.8375 88.9797 62.3875C91.6599 63.9375 93 65.9719 93 68.4906V73.625H75.5625ZM46.5 59.0938C41.3333 59.0938 37.1354 59.8688 33.9062 61.4188C30.6771 62.9688 29.0625 64.9385 29.0625 67.3281V67.8125H63.9375V67.2313C63.9375 64.9063 62.3391 62.9688 59.1422 61.4188C55.9453 59.8688 51.7313 59.0938 46.5 59.0938ZM14.5312 57.1562C12.6583 57.1562 11.0599 56.4943 9.73594 55.1703C8.41198 53.8464 7.75 52.2479 7.75 50.375C7.75 48.5021 8.41198 46.9036 9.73594 45.5797C11.0599 44.2557 12.6583 43.5938 14.5312 43.5938C16.4042 43.5938 18.0026 44.2557 19.3266 45.5797C20.6505 46.9036 21.3125 48.5021 21.3125 50.375C21.3125 52.2479 20.6505 53.8464 19.3266 55.1703C18.0026 56.4943 16.4042 57.1562 14.5312 57.1562ZM78.4688 57.1562C76.5958 57.1562 74.9974 56.4943 73.6734 55.1703C72.3495 53.8464 71.6875 52.2479 71.6875 50.375C71.6875 48.5021 72.3495 46.9036 73.6734 45.5797C74.9974 44.2557 76.5958 43.5938 78.4688 43.5938C80.3417 43.5938 81.9401 44.2557 83.2641 45.5797C84.588 46.9036 85.25 48.5021 85.25 50.375C85.25 52.2479 84.588 53.8464 83.2641 55.1703C81.9401 56.4943 80.3417 57.1562 78.4688 57.1562ZM46.5 50.375C43.2708 50.375 40.526 49.2448 38.2656 46.9844C36.0052 44.724 34.875 41.9792 34.875 38.75C34.875 35.4562 36.0052 32.6953 38.2656 30.4672C40.526 28.2391 43.2708 27.125 46.5 27.125C49.7938 27.125 52.5547 28.2391 54.7828 30.4672C57.0109 32.6953 58.125 35.4562 58.125 38.75C58.125 41.9792 57.0109 44.724 54.7828 46.9844C52.5547 49.2448 49.7938 50.375 46.5 50.375ZM46.5 32.9375C44.8854 32.9375 43.513 33.4865 42.3828 34.5844C41.2526 35.6823 40.6875 37.0708 40.6875 38.75C40.6875 40.3646 41.2526 41.737 42.3828 42.8672C43.513 43.9974 44.8854 44.5625 46.5 44.5625C48.1792 44.5625 49.5677 43.9974 50.6656 42.8672C51.7635 41.737 52.3125 40.3646 52.3125 38.75C52.3125 37.0708 51.7635 35.6823 50.6656 34.5844C49.5677 33.4865 48.1792 32.9375 46.5 32.9375Z" fill="#FF95B5"/>
</svg>
