<svg viewBox="0 0 79 79" fill="none" xmlns="http://www.w3.org/2000/svg">
<path d="M24.1938 48.7031C24.8396 47.2177 25.3724 45.7161 25.7922 44.1984C26.212 42.6807 26.4219 41.1146 26.4219 39.5C26.4219 37.8854 26.2281 36.3031 25.8406 34.7531C25.4531 33.2031 24.8719 31.7177 24.0969 30.2969L18.6719 32.2344C19.3823 33.3323 19.8828 34.4948 20.1734 35.7219C20.4641 36.949 20.6094 38.2083 20.6094 39.5C20.6094 40.7917 20.4318 42.051 20.0766 43.2781C19.7214 44.5052 19.2531 45.7 18.6719 46.8625L24.1938 48.7031ZM37.3687 54.225C38.4021 51.9 39.1448 49.4943 39.5969 47.0078C40.049 44.5214 40.275 42.0187 40.275 39.5C40.275 36.9813 40.049 34.4948 39.5969 32.0406C39.1448 29.5865 38.4021 27.1969 37.3687 24.8719L31.8469 26.8094C32.8156 28.8115 33.4938 30.8781 33.8813 33.0094C34.2687 35.1406 34.4625 37.3042 34.4625 39.5C34.4625 41.6958 34.2526 43.8755 33.8328 46.0391C33.413 48.2026 32.751 50.2854 31.8469 52.2875L37.3687 54.225ZM50.0594 59.65C51.4802 56.4208 52.5135 53.1271 53.1594 49.7687C53.8052 46.4104 54.1281 42.9875 54.1281 39.5C54.1281 36.0125 53.8052 32.5896 53.1594 29.2313C52.5135 25.8729 51.4802 22.6115 50.0594 19.4469L44.6344 21.5781C45.926 24.4198 46.8625 27.3422 47.4438 30.3453C48.025 33.3484 48.3156 36.4 48.3156 39.5C48.3156 42.6 48.025 45.6677 47.4438 48.7031C46.8625 51.7385 45.926 54.6771 44.6344 57.5187L50.0594 59.65ZM39.5 78.25C34.2042 78.25 29.199 77.2328 24.4844 75.1984C19.7698 73.1641 15.6526 70.387 12.1328 66.8672C8.61302 63.3474 5.83594 59.2302 3.80156 54.5156C1.76719 49.801 0.75 44.7958 0.75 39.5C0.75 34.1396 1.76719 29.1021 3.80156 24.3875C5.83594 19.6729 8.61302 15.5719 12.1328 12.0844C15.6526 8.59688 19.7698 5.83594 24.4844 3.80156C29.199 1.76719 34.2042 0.75 39.5 0.75C44.8604 0.75 49.8979 1.76719 54.6125 3.80156C59.3271 5.83594 63.4281 8.59688 66.9156 12.0844C70.4031 15.5719 73.1641 19.6729 75.1984 24.3875C77.2328 29.1021 78.25 34.1396 78.25 39.5C78.25 44.7958 77.2328 49.801 75.1984 54.5156C73.1641 59.2302 70.4031 63.3474 66.9156 66.8672C63.4281 70.387 59.3271 73.1641 54.6125 75.1984C49.8979 77.2328 44.8604 78.25 39.5 78.25Z" fill="#FF95B5"/>
</svg>
