<svg viewBox="0 0 33 33" fill="none" xmlns="http://www.w3.org/2000/svg">
<path d="M30.4847 32.4457L18.8229 20.784C17.9361 21.5525 16.9015 22.1511 15.719 22.5798C14.5366 23.0084 13.2803 23.2227 11.95 23.2227C8.75748 23.2227 6.05266 22.1142 3.8356 19.8971C1.61854 17.6801 0.51001 15.0048 0.51001 11.8714C0.51001 8.73792 1.61854 6.06267 3.8356 3.84561C6.05266 1.62855 8.7427 0.52002 11.9057 0.52002C15.0391 0.52002 17.707 1.62855 19.9093 3.84561C22.1116 6.06267 23.2127 8.73792 23.2127 11.8714C23.2127 13.1425 23.0058 14.3693 22.5919 15.5517C22.1781 16.7341 21.5573 17.8427 20.7296 18.8773L32.4357 30.4947L30.4847 32.4457ZM11.9057 20.5622C14.3001 20.5622 16.3398 19.7124 18.0248 18.0126C19.7098 16.3129 20.5522 14.2658 20.5522 11.8714C20.5522 9.47694 19.7098 7.42986 18.0248 5.73011C16.3398 4.03037 14.3001 3.18049 11.9057 3.18049C9.48172 3.18049 7.41985 4.03037 5.7201 5.73011C4.02036 7.42986 3.17048 9.47694 3.17048 11.8714C3.17048 14.2658 4.02036 16.3129 5.7201 18.0126C7.41985 19.7124 9.48172 20.5622 11.9057 20.5622Z" fill="#B5C1F2"/>
</svg>
