<svg viewBox="0 0 78 80" fill="none" xmlns="http://www.w3.org/2000/svg">
<path d="M31.1667 79.1667C30.0569 79.1667 29.1267 78.7914 28.376 78.0407C27.6254 77.29 27.25 76.3598 27.25 75.25V60.3667L14.325 67.8084C13.4111 68.3306 12.4319 68.4448 11.3875 68.1511C10.3431 67.8573 9.55972 67.2535 9.0375 66.3396L1.20417 52.8271C0.681946 51.9132 0.55139 50.9177 0.812501 49.8407C1.07361 48.7636 1.66111 47.9639 2.575 47.4417L15.5 40L2.575 32.5584C1.66111 32.0362 1.07361 31.2365 0.812501 30.1594C0.55139 29.0823 0.681946 28.0868 1.20417 27.173L9.0375 13.6605C9.55972 12.7466 10.3431 12.1427 11.3875 11.849C12.4319 11.5552 13.4111 11.6695 14.325 12.1917L27.25 19.6334V4.75004C27.25 3.64032 27.6254 2.71011 28.376 1.95942C29.1267 1.20872 30.0569 0.833374 31.1667 0.833374H46.8333C47.9431 0.833374 48.8733 1.20872 49.624 1.95942C50.3747 2.71011 50.75 3.64032 50.75 4.75004V19.6334L63.675 12.1917C64.5889 11.6695 65.5681 11.5552 66.6125 11.849C67.6569 12.1427 68.4403 12.7466 68.9625 13.6605L76.7958 27.173C77.3181 28.0868 77.4486 29.0823 77.1875 30.1594C76.9264 31.2365 76.3389 32.0362 75.425 32.5584L62.5 40L75.425 47.4417C76.3389 47.9639 76.9264 48.7636 77.1875 49.8407C77.4486 50.9177 77.3181 51.9132 76.7958 52.8271L68.9625 66.3396C68.4403 67.2535 67.6569 67.8573 66.6125 68.1511C65.5681 68.4448 64.5889 68.3306 63.675 67.8084L50.75 60.3667V75.25C50.75 76.3598 50.3747 77.29 49.624 78.0407C48.8733 78.7914 47.9431 79.1667 46.8333 79.1667H31.1667ZM33.125 73.2917H44.875V53.1209C44.875 52.4681 45.1524 51.9785 45.7073 51.6521C46.2622 51.3257 46.8333 51.3257 47.4208 51.6521L64.85 61.7375L70.725 51.5542L53.1979 41.4688C52.6104 41.1424 52.3167 40.6365 52.3167 39.9511C52.3167 39.2657 52.6104 38.7598 53.1979 38.4334L70.725 28.348L64.85 18.2625L47.4208 28.348C46.8333 28.6743 46.2622 28.6743 45.7073 28.348C45.1524 28.0216 44.875 27.532 44.875 26.8792V6.70837H33.125V26.9771C33.125 27.6299 32.8476 28.1195 32.2927 28.4459C31.7379 28.7723 31.1667 28.7723 30.5792 28.4459L13.15 18.3605L7.275 28.4459L24.8021 38.5313C25.3896 38.8577 25.6833 39.3636 25.6833 40.049C25.6833 40.7344 25.3896 41.2403 24.8021 41.5667L7.275 51.6521L13.15 61.7375L30.5792 51.6521C31.1667 51.3257 31.7379 51.3257 32.2927 51.6521C32.8476 51.9785 33.125 52.4681 33.125 53.1209V73.2917Z" fill="#FF95B5"/>
</svg>
